# Blender v2.81 (sub 16) OBJ File: ''
# www.blender.org
mtllib R1.mtl
o Cube.001
v -1.104028 0.614830 0.357377
v -1.483793 0.467330 0.324485
v -1.292247 0.501496 0.772759
v -0.929419 0.652399 0.954577
v -0.880561 0.429150 1.364811
v -1.325034 0.291710 0.944220
v -1.357386 0.208004 -0.752885
v -1.206674 0.559700 -0.727563
v -0.841511 0.539874 -1.068291
v -0.895463 0.275800 -1.190858
v 0.462221 -0.896086 0.504435
v 0.824543 -0.800161 0.498900
v 0.736002 -0.738348 0.886511
v 0.424799 -0.818111 1.013041
v 1.013842 0.329635 0.660665
v 0.838652 0.614176 0.557261
v 0.731925 0.668889 1.027109
v 0.901985 0.406397 1.210239
v 0.484569 0.350766 -1.237659
v 0.397817 0.721679 -1.045111
v 0.738283 0.567136 -0.850989
v 0.869545 0.286145 -0.927411
v 0.959436 0.270696 -0.512726
v 0.795283 0.587212 -0.511266
v 0.947571 0.625575 -0.035476
v 0.982350 0.244973 -0.012248
v 0.478420 -0.928425 -0.559795
v 0.830203 -0.803053 -0.500681
v 0.899053 -0.859610 -0.016266
v 0.513115 -0.967573 -0.021779
v -1.536360 0.190308 0.333095
v -1.547400 0.501397 -0.214131
v -1.591730 0.160558 -0.255060
v -0.757695 0.696244 -0.722236
v -1.041066 0.574492 -0.232539
v -1.426130 -0.542267 0.337797
v -1.502335 -0.162149 0.290080
v -1.503957 -0.203786 -0.318760
v -1.433168 -0.603044 -0.376974
v 0.972264 -0.502553 -0.517919
v 1.007595 -0.119374 -0.523115
v 0.970750 -0.126945 -0.019199
v 0.966711 -0.502332 -0.020263
v 0.481953 -0.536541 -1.236203
v 0.482233 -0.116900 -1.311163
v 1.002595 -0.108612 -1.001925
v 0.862547 -0.501132 -0.929399
v 0.956550 -0.499383 0.577955
v 1.040829 -0.111061 0.710305
v 1.094894 -0.087147 1.319877
v 0.855405 -0.497306 1.079567
v -1.366689 -0.645080 -0.945812
v -1.421366 -0.185270 -0.807195
v -1.036371 -0.110838 -1.324045
v -1.086469 -0.585536 -1.326264
v -0.701205 -0.610948 1.518945
v -0.873620 0.005390 1.593657
v -1.436158 -0.057146 1.182723
v -1.303310 -0.550667 1.140909
v 0.493426 -0.553893 1.432337
v 0.531346 -0.055877 1.663478
v -0.094309 -0.032302 1.779461
v -0.060581 -0.615533 1.666064
v -0.595359 -0.571696 -1.313047
v -0.560137 -0.105403 -1.402270
v -0.034099 -0.112732 -1.250078
v -0.058712 -0.536711 -1.354972
v 0.324200 0.743520 -0.589701
v -0.285958 0.695628 -0.670803
v -0.425424 0.612221 -0.164195
v 0.360989 0.695244 -0.072782
v -0.590850 -0.998667 -0.756968
v -0.048830 -0.973973 -0.648639
v -0.081694 -0.880843 -0.062132
v -0.592568 -0.941905 -0.210906
v -0.513504 0.324806 -1.324474
v -0.530937 0.625948 -1.110395
v -0.118751 0.787606 -1.192570
v -0.069229 0.353261 -1.374634
v -0.646060 -0.844293 0.432134
v -0.081103 -0.881427 0.463903
v -0.071508 -0.934154 1.119875
v -0.624277 -0.912304 1.078662
v 0.416002 0.526733 1.525755
v 0.322196 0.826632 1.157629
v -0.322363 0.886810 1.156780
v -0.246756 0.539862 1.580579
v 0.332814 0.733660 0.517736
v -0.406948 0.723914 0.386157
v -1.141020 -0.852073 0.309077
v -1.135555 -0.925496 0.970633
v -1.129895 -0.991776 -0.892084
v -1.149873 -0.930253 -0.356570
v -1.071467 -0.992122 -1.268691
v -0.562681 -0.948630 -1.188834
v -0.055104 -0.929113 -1.115894
v 0.443495 -0.828115 -0.970121
v 0.725802 -0.722452 -0.809583
vt 0.786041 0.681783
vt 0.847881 0.681783
vt 0.847881 0.744269
vt 0.786041 0.744269
vt 0.535381 0.932429
vt 0.597881 0.932429
vt 0.597881 0.994269
vt 0.535381 0.994269
vt 0.535381 0.181755
vt 0.597881 0.181755
vt 0.597881 0.244269
vt 0.535381 0.244269
vt 0.284721 0.681783
vt 0.347881 0.681783
vt 0.347881 0.744269
vt 0.284721 0.744269
vt 0.535381 0.681783
vt 0.597881 0.681783
vt 0.597881 0.744269
vt 0.535381 0.744269
vt 0.535381 0.431109
vt 0.597881 0.431109
vt 0.597881 0.494269
vt 0.535381 0.494269
vt 0.535381 0.556783
vt 0.597881 0.556783
vt 0.597881 0.619298
vt 0.535381 0.619298
vt 0.284721 0.556783
vt 0.347881 0.556783
vt 0.347881 0.619298
vt 0.284721 0.619298
vt 0.535381 0.056755
vt 0.597881 0.056755
vt 0.597881 0.119240
vt 0.535381 0.119240
vt 0.786041 0.556783
vt 0.847881 0.556783
vt 0.847881 0.619298
vt 0.786041 0.619298
vt 0.410381 0.056755
vt 0.472881 0.056755
vt 0.472881 0.119240
vt 0.410381 0.119240
vt 0.410381 0.556783
vt 0.472881 0.556783
vt 0.472881 0.619298
vt 0.410381 0.619298
vt 0.410381 0.431109
vt 0.472881 0.431109
vt 0.472881 0.494269
vt 0.410381 0.494269
vt 0.410381 0.681783
vt 0.472881 0.681783
vt 0.472881 0.744269
vt 0.410381 0.744269
vt 0.410381 0.181755
vt 0.472881 0.181755
vt 0.472881 0.244269
vt 0.410381 0.244269
vt 0.410381 0.932429
vt 0.472881 0.932429
vt 0.472881 0.994269
vt 0.410381 0.994269
vt 0.410381 0.807429
vt 0.472881 0.807429
vt 0.472881 0.870589
vt 0.410381 0.870589
vt 0.410381 0.306109
vt 0.472881 0.306109
vt 0.472881 0.367949
vt 0.410381 0.367949
vt 0.661041 0.556783
vt 0.724201 0.556783
vt 0.724201 0.619298
vt 0.661041 0.619298
vt 0.159721 0.556783
vt 0.221561 0.556783
vt 0.221561 0.619298
vt 0.159721 0.619298
vt 0.535381 0.306109
vt 0.597881 0.306109
vt 0.597881 0.367949
vt 0.535381 0.367949
vt 0.159721 0.681783
vt 0.221561 0.681783
vt 0.221561 0.744269
vt 0.159721 0.744269
vt 0.535381 0.807429
vt 0.597881 0.807429
vt 0.597881 0.870589
vt 0.535381 0.870589
vt 0.661041 0.681783
vt 0.724201 0.681783
vt 0.724201 0.744269
vt 0.661041 0.744269
vt 0.097881 0.681783
vt 0.097881 0.744269
vt 0.097881 0.556783
vt 0.097881 0.619298
vt 0.410381 -0.005731
vt 0.472881 -0.005731
vt 0.535381 -0.005731
vt 0.597881 -0.005731
vt 0.724201 0.494269
vt 0.786041 0.494269
vt 0.097881 0.494269
vt 0.159721 0.494269
vt 0.221561 0.494269
vt 0.284721 0.494269
vt 0.661041 0.494269
vt 0.847881 0.494269
vt 0.347881 0.494269
vt 0.347881 0.119240
vt 0.347881 0.181755
vt 0.347881 -0.005731
vt 0.347881 0.056755
vt 0.347881 0.870589
vt 0.347881 0.932429
vt 0.347881 0.244269
vt 0.347881 0.306109
vt 0.347881 0.367949
vt 0.347881 0.431109
vt 0.347881 0.807429
vt 0.347881 0.994269
vn -0.3901 0.9178 0.0737
vn -0.5940 0.6374 0.4909
vn -0.6470 0.3746 -0.6641
vn 0.2820 -0.9411 0.1864
vn 0.8164 0.5685 0.1017
vn 0.5954 0.4684 -0.6528
vn 0.9484 0.2652 -0.1736
vn 0.3089 -0.9435 -0.1196
vn -0.9833 0.1488 0.1044
vn -0.2136 0.9760 0.0423
vn -0.9824 -0.1856 0.0208
vn 0.9978 -0.0516 0.0419
vn 0.5558 -0.2405 -0.7958
vn 0.9176 -0.3945 0.0481
vn -0.8064 0.0843 -0.5853
vn -0.5449 -0.2344 0.8051
vn 0.2805 -0.2924 0.9142
vn 0.1029 0.0106 -0.9946
vn -0.1069 0.9874 0.1163
vn 0.0483 -0.9900 0.1325
vn -0.2324 0.4447 -0.8650
vn -0.0465 -0.9948 -0.0911
vn 0.0694 0.7798 0.6221
vn 0.0531 0.9821 -0.1809
vn 0.2795 0.9552 -0.0976
vn 0.4755 0.7194 0.5063
vn 0.2120 0.9768 -0.0306
vn 0.5250 -0.5129 0.6792
vn 0.0546 0.0338 -0.9979
vn -0.0422 -0.9980 0.0480
vn 0.2566 0.4430 -0.8590
vn 0.0985 -0.9948 0.0239
vn 0.0456 -0.9931 -0.1083
vn -0.3034 0.5020 -0.8099
vn -0.0444 -0.9932 0.1077
vn -0.0651 -0.0860 -0.9942
vn -0.2295 -0.1892 0.9548
vn -0.0533 0.9823 0.1796
vn -0.3915 0.7314 0.5584
vn -0.2375 0.9666 -0.0967
vn -0.1002 0.9857 -0.1353
vn -0.0373 -0.9906 0.1318
vn -0.0930 -0.9937 0.0625
vn 0.1708 0.9853 -0.0027
vn -0.0411 0.9906 -0.1307
vn 0.0082 -0.9965 0.0831
vn 0.9933 -0.1073 -0.0433
vn -0.9656 -0.2302 0.1207
vn -0.9099 0.2745 0.3109
vn 0.9506 0.3078 0.0403
vn 0.2599 -0.9537 0.1512
vn -0.2415 0.9704 -0.0053
vn -0.1808 0.9820 -0.0549
vn 0.0464 -0.9973 -0.0563
vn 0.1771 -0.9696 -0.1687
vn 0.3694 0.9283 -0.0412
vn 0.0597 -0.9929 -0.1033
vn 0.0014 0.9974 0.0719
vn -0.9843 -0.1125 -0.1363
vn 0.9646 -0.2309 -0.1275
vn -0.2797 0.8985 -0.3383
vn 0.4160 -0.8596 -0.2968
vn 0.8738 0.4545 -0.1729
vn -0.8464 0.2816 -0.4519
vn -0.9522 0.0176 -0.3048
vn 0.9676 0.2338 -0.0959
vn 0.9972 0.0150 -0.0733
vn -0.9755 0.1516 0.1592
vn -0.2732 0.3424 0.8990
vn -0.2466 0.2950 -0.9231
vn 0.0703 -0.0520 -0.9962
vn 0.5356 0.3319 0.7765
vn 0.1337 0.3058 0.9427
vn 0.1056 -0.0532 -0.9930
vn -0.9828 -0.1755 0.0573
vn 0.9987 0.0476 0.0154
vn 0.5600 0.2219 -0.7982
vn 0.9719 0.2336 0.0282
vn -0.7291 0.3350 -0.5968
vn -0.6164 0.4667 0.6342
vn 0.8072 -0.5095 -0.2979
vn -0.7914 -0.6113 -0.0046
vn -0.8278 -0.5595 0.0412
vn 0.9503 -0.2985 0.0890
vn -0.1015 -0.8453 0.5245
vn 0.1029 -0.2189 -0.9703
vn 0.2533 -0.5830 -0.7720
vn 0.4816 -0.7428 0.4651
vn 0.0490 -0.4246 -0.9041
vn 0.2945 -0.8287 0.4760
vn -0.3117 -0.6964 0.6464
vn -0.8471 -0.3431 -0.4058
vn 0.8402 -0.4978 0.2150
vn 0.5371 -0.6166 -0.5757
vn 0.9491 -0.3051 -0.0787
vn -0.7435 -0.6644 0.0754
usemtl Material.001
s 1
f 1/1/1 2/2/1 3/3/1 4/4/1
f 5/5/2 4/6/2 3/7/2 6/8/2
f 7/9/3 8/10/3 9/11/3 10/12/3
f 11/13/4 12/14/4 13/15/4 14/16/4
f 15/17/5 16/18/5 17/19/5 18/20/5
f 19/21/6 20/22/6 21/23/6 22/24/6
f 23/25/7 24/26/7 25/27/7 26/28/7
f 27/29/8 28/30/8 29/31/8 30/32/8
f 31/33/9 2/34/9 32/35/9 33/36/9
f 34/37/10 8/38/10 32/39/10 35/40/10
f 36/41/11 37/42/11 38/43/11 39/44/11
f 40/45/12 41/46/12 42/47/12 43/48/12
f 44/49/13 45/50/13 46/51/13 47/52/13
f 48/53/14 49/54/14 50/55/14 51/56/14
f 52/57/15 53/58/15 54/59/15 55/60/15
f 56/61/16 57/62/16 58/63/16 59/64/16
f 60/65/17 61/66/17 62/67/17 63/68/17
f 64/69/18 65/70/18 66/71/18 67/72/18
f 68/73/19 69/74/19 70/75/19 71/76/19
f 72/77/20 73/78/20 74/79/20 75/80/20
f 76/81/21 77/82/21 78/83/21 79/84/21
f 80/85/22 81/86/22 82/87/22 83/88/22
f 84/89/23 85/90/23 86/91/23 87/92/23
f 88/93/24 89/94/24 86/95/24 85/96/24
f 16/18/25 88/93/25 85/96/25 17/19/25
f 18/20/26 17/19/26 85/90/26 84/89/26
f 24/26/27 68/73/27 71/76/27 25/27/27
f 51/56/28 50/55/28 61/66/28 60/65/28
f 67/72/29 66/71/29 45/50/29 44/49/29
f 73/78/30 27/29/30 30/32/30 74/79/30
f 79/84/31 78/83/31 20/22/31 19/21/31
f 81/86/32 11/13/32 14/16/32 82/87/32
f 90/97/33 80/85/33 83/88/33 91/98/33
f 10/12/34 9/11/34 77/82/34 76/81/34
f 92/99/35 72/77/35 75/80/35 93/100/35
f 55/60/36 54/59/36 65/70/36 64/69/36
f 63/68/37 62/67/37 57/62/37 56/61/37
f 69/74/38 34/37/38 35/40/38 70/75/38
f 87/92/39 86/91/39 4/6/39 5/5/39
f 89/94/40 1/1/40 4/4/40 86/95/40
f 70/75/41 35/40/41 1/1/41 89/94/41
f 93/100/42 75/80/42 80/85/42 90/97/42
f 74/79/43 30/32/43 11/13/43 81/86/43
f 25/27/44 71/76/44 88/93/44 16/18/44
f 71/76/45 70/75/45 89/94/45 88/93/45
f 75/80/46 74/79/46 81/86/46 80/85/46
f 43/48/47 42/47/47 49/54/47 48/53/47
f 59/101/48 58/102/48 37/42/48 36/41/48
f 6/103/49 3/104/49 2/34/49 31/33/49
f 26/28/50 25/27/50 16/18/50 15/17/50
f 30/32/51 29/31/51 12/14/51 11/13/51
f 35/40/52 32/39/52 2/2/52 1/1/52
f 78/105/53 77/106/53 34/37/53 69/74/53
f 94/107/54 95/108/54 72/77/54 92/99/54
f 96/109/55 97/110/55 27/29/55 73/78/55
f 21/23/56 20/111/56 68/73/56 24/26/56
f 95/108/57 96/109/57 73/78/57 72/77/57
f 20/111/58 78/105/58 69/74/58 68/73/58
f 39/44/59 38/43/59 53/58/59 52/57/59
f 47/52/60 46/51/60 41/46/60 40/45/60
f 77/106/61 9/112/61 8/38/61 34/37/61
f 97/110/62 98/113/62 28/30/62 27/29/62
f 22/24/63 21/23/63 24/26/63 23/25/63
f 33/36/64 32/35/64 8/10/64 7/9/64
f 38/43/65 33/36/65 7/9/65 53/58/65
f 46/51/66 22/24/66 23/25/66 41/46/66
f 42/47/67 26/28/67 15/17/67 49/54/67
f 58/102/68 6/103/68 31/33/68 37/42/68
f 62/67/69 87/92/69 5/5/69 57/62/69
f 54/59/70 10/12/70 76/81/70 65/70/70
f 66/71/71 79/84/71 19/21/71 45/50/71
f 50/55/72 18/20/72 84/89/72 61/66/72
f 61/66/73 84/89/73 87/92/73 62/67/73
f 65/70/74 76/81/74 79/84/74 66/71/74
f 37/42/75 31/33/75 33/36/75 38/43/75
f 41/46/76 23/25/76 26/28/76 42/47/76
f 45/50/77 19/21/77 22/24/77 46/51/77
f 49/54/78 15/17/78 18/20/78 50/55/78
f 53/58/79 7/9/79 10/12/79 54/59/79
f 57/62/80 5/5/80 6/8/80 58/63/80
f 98/113/81 47/52/81 40/45/81 28/30/81
f 93/114/82 39/44/82 52/57/82 92/115/82
f 91/116/83 59/101/83 36/41/83 90/117/83
f 29/31/84 43/48/84 48/53/84 12/14/84
f 82/118/85 63/68/85 56/61/85 83/119/85
f 94/120/86 55/60/86 64/69/86 95/121/86
f 96/122/87 67/72/87 44/49/87 97/123/87
f 13/15/88 51/56/88 60/65/88 14/124/88
f 95/121/89 64/69/89 67/72/89 96/122/89
f 14/124/90 60/65/90 63/68/90 82/118/90
f 83/119/91 56/61/91 59/64/91 91/125/91
f 92/115/92 52/57/92 55/60/92 94/120/92
f 12/14/93 48/53/93 51/56/93 13/15/93
f 97/123/94 44/49/94 47/52/94 98/113/94
f 28/30/95 40/45/95 43/48/95 29/31/95
f 90/117/96 36/41/96 39/44/96 93/114/96
