# Blender v2.81 (sub 16) OBJ File: ''
# www.blender.org
mtllib R4.mtl
o Cube.001
v 0.119632 0.279956 -0.715972
v 0.490225 0.089259 -0.994626
v 0.198812 0.053692 -1.183167
v -0.235696 0.138153 -1.030825
v -0.454775 -0.042943 -1.347664
v 0.323531 -0.090865 -1.497047
v 1.038018 -0.264803 -0.197476
v 0.971996 0.161698 -0.103026
v 1.223561 0.124515 0.156277
v 1.279118 -0.257363 0.184548
v -1.253957 -1.013349 -0.546804
v -1.432504 -0.743752 -0.413092
v -1.529690 -0.467025 -0.451359
v -1.451006 -0.540716 -0.638696
v -1.342186 0.469002 0.068450
v -1.086866 0.475652 -0.149807
v -1.267861 0.557621 -0.485879
v -1.430890 0.395760 -0.465256
v 0.396158 -0.223946 1.412307
v 0.392229 0.448096 1.236208
v 0.059286 0.450157 1.317027
v 0.034680 0.081185 1.483003
v -0.373594 0.328192 1.263413
v -0.242625 0.778566 1.201444
v -0.472727 0.871185 0.480716
v -0.810960 0.435345 0.680352
v -0.353227 -1.389330 0.666122
v -0.571196 -0.885910 1.107849
v -1.059832 -0.957985 0.265039
v -0.832580 -1.383753 0.501860
v 0.658614 -0.174268 -1.215663
v 0.708767 0.112678 -0.557193
v 0.798388 -0.247721 -0.682204
v 0.903993 0.583473 0.035348
v 0.493306 0.422169 -0.333048
v 0.519158 -0.941999 -1.114118
v 0.612229 -0.546370 -1.247967
v 0.801327 -0.668899 -0.720451
v 0.775105 -1.161548 -0.659255
v -0.628021 -0.563840 1.298030
v -0.462055 -0.105750 1.220309
v -1.037360 -0.126326 0.547362
v -1.137206 -0.588427 0.384215
v 0.275046 -1.001925 1.393789
v 0.421729 -0.827410 1.592921
v 0.067508 -0.333453 1.641408
v -0.146334 -0.732851 1.459687
v -1.553049 -0.420630 -0.291720
v -1.509910 0.029745 0.011154
v -1.548343 0.078331 -0.407099
v -1.630519 -0.214108 -0.402086
v 1.092940 -1.234265 -0.229742
v 1.088586 -0.729729 -0.245388
v 1.099079 -0.734006 0.261744
v 1.103651 -1.149811 0.220129
v -0.679876 -0.623515 -1.623474
v -0.628701 -0.293793 -1.592395
v 0.314006 -0.380480 -1.676679
v 0.506386 -0.778444 -1.533964
v -1.576139 -0.248399 -0.733157
v -1.522890 0.053415 -0.772205
v -1.480882 -0.129106 -1.124258
v -1.350540 -0.440498 -1.146979
v 0.914646 -1.176481 0.741077
v 0.841202 -0.786774 0.939652
v 0.535629 -0.748407 1.338611
v 0.523758 -1.080013 1.121711
v 0.145967 0.924406 0.904742
v 0.622460 0.857773 0.407743
v 0.161916 0.644977 -0.049412
v -0.201103 0.785022 0.218767
v 0.494478 -1.655536 0.340887
v -0.006630 -1.515022 0.409650
v -0.492514 -1.725862 -0.124380
v 0.161013 -1.665981 0.003586
v 0.948998 -0.246500 0.775182
v 1.174335 0.361508 0.510639
v 0.774651 0.416792 0.849128
v 0.702027 -0.149540 1.212306
v -0.067519 -1.495175 -0.776503
v -0.732793 -1.394097 -0.742716
v -1.117043 -0.723229 -1.014565
v -0.342731 -0.915763 -1.397024
v -1.347962 0.318936 -0.786295
v -1.021134 0.446325 -0.637714
v -0.747261 0.273265 -0.835466
v -1.240439 0.112202 -1.115311
v -0.656378 0.564416 -0.288264
v -0.277965 0.452047 -0.478438
v 0.433291 -1.305123 -0.938322
v 0.238181 -0.957507 -1.246114
v 0.911070 -1.684941 -0.081185
v 0.587258 -1.484184 -0.363819
v 1.018448 -1.433742 0.196198
v 0.762190 -1.395741 0.513951
v 0.386445 -1.377819 0.910524
v 0.053648 -1.122674 1.200714
v -0.253837 -0.963330 1.292678
vt 0.786041 0.681783
vt 0.847881 0.681783
vt 0.847881 0.744269
vt 0.786041 0.744269
vt 0.535381 0.932429
vt 0.597881 0.932429
vt 0.597881 0.994269
vt 0.535381 0.994269
vt 0.535381 0.181755
vt 0.597881 0.181755
vt 0.597881 0.244269
vt 0.535381 0.244269
vt 0.284721 0.681783
vt 0.347881 0.681783
vt 0.347881 0.744269
vt 0.284721 0.744269
vt 0.535381 0.681783
vt 0.597881 0.681783
vt 0.597881 0.744269
vt 0.535381 0.744269
vt 0.535381 0.431109
vt 0.597881 0.431109
vt 0.597881 0.494269
vt 0.535381 0.494269
vt 0.535381 0.556783
vt 0.597881 0.556783
vt 0.597881 0.619298
vt 0.535381 0.619298
vt 0.284721 0.556783
vt 0.347881 0.556783
vt 0.347881 0.619298
vt 0.284721 0.619298
vt 0.535381 0.056755
vt 0.597881 0.056755
vt 0.597881 0.119240
vt 0.535381 0.119240
vt 0.786041 0.556783
vt 0.847881 0.556783
vt 0.847881 0.619298
vt 0.786041 0.619298
vt 0.410381 0.056755
vt 0.472881 0.056755
vt 0.472881 0.119240
vt 0.410381 0.119240
vt 0.410381 0.556783
vt 0.472881 0.556783
vt 0.472881 0.619298
vt 0.410381 0.619298
vt 0.410381 0.431109
vt 0.472881 0.431109
vt 0.472881 0.494269
vt 0.410381 0.494269
vt 0.410381 0.681783
vt 0.472881 0.681783
vt 0.472881 0.744269
vt 0.410381 0.744269
vt 0.410381 0.181755
vt 0.472881 0.181755
vt 0.472881 0.244269
vt 0.410381 0.244269
vt 0.410381 0.932429
vt 0.472881 0.932429
vt 0.472881 0.994269
vt 0.410381 0.994269
vt 0.410381 0.807429
vt 0.472881 0.807429
vt 0.472881 0.870589
vt 0.410381 0.870589
vt 0.410381 0.306109
vt 0.472881 0.306109
vt 0.472881 0.367949
vt 0.410381 0.367949
vt 0.661041 0.556783
vt 0.724201 0.556783
vt 0.724201 0.619298
vt 0.661041 0.619298
vt 0.159721 0.556783
vt 0.221561 0.556783
vt 0.221561 0.619298
vt 0.159721 0.619298
vt 0.535381 0.306109
vt 0.597881 0.306109
vt 0.597881 0.367949
vt 0.535381 0.367949
vt 0.159721 0.681783
vt 0.221561 0.681783
vt 0.221561 0.744269
vt 0.159721 0.744269
vt 0.535381 0.807429
vt 0.597881 0.807429
vt 0.597881 0.870589
vt 0.535381 0.870589
vt 0.661041 0.681783
vt 0.724201 0.681783
vt 0.724201 0.744269
vt 0.661041 0.744269
vt 0.097881 0.681783
vt 0.097881 0.744269
vt 0.097881 0.556783
vt 0.097881 0.619298
vt 0.410381 -0.005731
vt 0.472881 -0.005731
vt 0.535381 -0.005731
vt 0.597881 -0.005731
vt 0.724201 0.494269
vt 0.786041 0.494269
vt 0.097881 0.494269
vt 0.159721 0.494269
vt 0.221561 0.494269
vt 0.284721 0.494269
vt 0.661041 0.494269
vt 0.847881 0.494269
vt 0.347881 0.494269
vt 0.347881 0.119240
vt 0.347881 0.181755
vt 0.347881 -0.005731
vt 0.347881 0.056755
vt 0.347881 0.870589
vt 0.347881 0.932429
vt 0.347881 0.244269
vt 0.347881 0.306109
vt 0.347881 0.367949
vt 0.347881 0.431109
vt 0.347881 0.807429
vt 0.347881 0.994269
vn 0.0819 0.9024 -0.4231
vn -0.0165 0.8894 -0.4568
vn 0.7856 0.1669 -0.5958
vn -0.8755 -0.3927 -0.2816
vn -0.3178 0.9420 0.1080
vn 0.3245 0.2895 0.9005
vn -0.7266 0.5180 0.4514
vn -0.6316 -0.4429 0.6363
vn 0.8232 0.4948 -0.2783
vn 0.5840 0.5308 -0.6142
vn 0.8585 -0.2173 -0.4646
vn -0.8139 0.1840 0.5511
vn -0.2723 -0.4074 0.8717
vn -0.9676 0.0655 0.2438
vn 0.9997 0.0103 -0.0230
vn -0.0151 -0.1545 -0.9879
vn -0.9541 -0.1272 -0.2712
vn 0.6774 -0.3229 0.6610
vn -0.0202 0.9594 -0.2813
vn -0.0822 -0.9448 0.3173
vn 0.7739 0.1344 0.6189
vn -0.3300 -0.6575 -0.6774
vn 0.0148 0.8161 -0.5777
vn 0.0961 0.8720 -0.4799
vn 0.0080 0.9982 -0.0589
vn -0.3216 0.7813 -0.5350
vn -0.0876 0.9961 0.0028
vn -0.9689 0.2112 -0.1291
vn 0.6676 -0.5863 0.4589
vn -0.0993 -0.9091 0.4045
vn 0.6111 0.2873 0.7376
vn -0.6844 -0.5128 -0.5184
vn 0.0863 -0.6828 -0.7255
vn 0.9229 -0.0452 0.3823
vn -0.0519 -0.9688 -0.2424
vn 0.9372 -0.0131 0.3485
vn -0.5261 0.0064 -0.8504
vn 0.1293 0.8448 -0.5193
vn 0.0213 0.8561 -0.5164
vn 0.0608 0.8698 -0.4896
vn 0.1246 0.8669 -0.4826
vn 0.2037 -0.9325 -0.2984
vn -0.6683 -0.7423 -0.0474
vn -0.1886 0.9268 -0.3247
vn 0.0381 0.9001 -0.4341
vn -0.0054 -0.9416 -0.3366
vn -0.8161 -0.1563 0.5564
vn 0.9386 -0.0028 -0.3451
vn 0.3788 0.8241 -0.4211
vn -0.4889 0.8482 0.2037
vn -0.8541 -0.4635 0.2358
vn 0.3511 0.8358 -0.4222
vn 0.6210 0.7426 0.2508
vn 0.4510 -0.7532 0.4788
vn -0.1344 -0.8836 0.4485
vn 0.2725 0.6024 0.7502
vn 0.0773 -0.8903 0.4487
vn 0.5748 0.6587 0.4855
vn 0.8254 -0.0613 -0.5612
vn -0.4670 0.1003 0.8786
vn 0.7962 0.4468 -0.4080
vn -0.3648 -0.7421 0.5624
vn -0.1995 0.2976 0.9336
vn 0.8384 0.2939 -0.4590
vn 0.8757 0.0988 -0.4727
vn -0.5054 0.1486 0.8500
vn -0.7297 0.1610 0.6646
vn 0.7627 0.1379 -0.6318
vn -0.2190 0.5864 -0.7799
vn 0.8981 -0.1565 0.4111
vn 0.7155 0.0930 0.6924
vn -0.8853 0.4190 -0.2020
vn -0.6855 0.5570 -0.4689
vn 0.8286 -0.0573 0.5569
vn 0.9535 -0.0255 -0.3003
vn -0.7673 0.1316 0.6277
vn 0.4752 0.3024 0.8263
vn -0.9295 0.3504 0.1151
vn 0.9530 -0.1394 -0.2691
vn -0.0562 0.6283 -0.7759
vn -0.4684 -0.4489 0.7609
vn 0.4680 -0.5976 -0.6511
vn 0.3240 -0.7281 -0.6041
vn -0.8433 -0.3748 0.3853
vn -0.4695 -0.7534 -0.4605
vn 0.7365 -0.5466 0.3984
vn 0.1745 -0.7573 0.6293
vn -0.9085 -0.3891 -0.1521
vn 0.4455 -0.7109 0.5441
vn -0.7670 -0.5836 -0.2667
vn 0.0100 -0.7365 -0.6763
vn 0.9401 -0.3410 0.0047
vn -0.9363 -0.3493 -0.0355
vn -0.1916 -0.6094 0.7694
vn -0.7999 -0.3675 0.4746
vn 0.6445 -0.5908 -0.4854
usemtl Material.001
s 1
f 1/1/1 2/2/1 3/3/1 4/4/1
f 5/5/2 4/6/2 3/7/2 6/8/2
f 7/9/3 8/10/3 9/11/3 10/12/3
f 11/13/4 12/14/4 13/15/4 14/16/4
f 15/17/5 16/18/5 17/19/5 18/20/5
f 19/21/6 20/22/6 21/23/6 22/24/6
f 23/25/7 24/26/7 25/27/7 26/28/7
f 27/29/8 28/30/8 29/31/8 30/32/8
f 31/33/9 2/34/9 32/35/9 33/36/9
f 34/37/10 8/38/10 32/39/10 35/40/10
f 36/41/11 37/42/11 38/43/11 39/44/11
f 40/45/12 41/46/12 42/47/12 43/48/12
f 44/49/13 45/50/13 46/51/13 47/52/13
f 48/53/14 49/54/14 50/55/14 51/56/14
f 52/57/15 53/58/15 54/59/15 55/60/15
f 56/61/16 57/62/16 58/63/16 59/64/16
f 60/65/17 61/66/17 62/67/17 63/68/17
f 64/69/18 65/70/18 66/71/18 67/72/18
f 68/73/19 69/74/19 70/75/19 71/76/19
f 72/77/20 73/78/20 74/79/20 75/80/20
f 76/81/21 77/82/21 78/83/21 79/84/21
f 80/85/22 81/86/22 82/87/22 83/88/22
f 84/89/23 85/90/23 86/91/23 87/92/23
f 88/93/24 89/94/24 86/95/24 85/96/24
f 16/18/25 88/93/25 85/96/25 17/19/25
f 18/20/26 17/19/26 85/90/26 84/89/26
f 24/26/27 68/73/27 71/76/27 25/27/27
f 51/56/28 50/55/28 61/66/28 60/65/28
f 67/72/29 66/71/29 45/50/29 44/49/29
f 73/78/30 27/29/30 30/32/30 74/79/30
f 79/84/31 78/83/31 20/22/31 19/21/31
f 81/86/32 11/13/32 14/16/32 82/87/32
f 90/97/33 80/85/33 83/88/33 91/98/33
f 10/12/34 9/11/34 77/82/34 76/81/34
f 92/99/35 72/77/35 75/80/35 93/100/35
f 55/60/36 54/59/36 65/70/36 64/69/36
f 63/68/37 62/67/37 57/62/37 56/61/37
f 69/74/38 34/37/38 35/40/38 70/75/38
f 87/92/39 86/91/39 4/6/39 5/5/39
f 89/94/40 1/1/40 4/4/40 86/95/40
f 70/75/41 35/40/41 1/1/41 89/94/41
f 93/100/42 75/80/42 80/85/42 90/97/42
f 74/79/43 30/32/43 11/13/43 81/86/43
f 25/27/44 71/76/44 88/93/44 16/18/44
f 71/76/45 70/75/45 89/94/45 88/93/45
f 75/80/46 74/79/46 81/86/46 80/85/46
f 43/48/47 42/47/47 49/54/47 48/53/47
f 59/101/48 58/102/48 37/42/48 36/41/48
f 6/103/49 3/104/49 2/34/49 31/33/49
f 26/28/50 25/27/50 16/18/50 15/17/50
f 30/32/51 29/31/51 12/14/51 11/13/51
f 35/40/52 32/39/52 2/2/52 1/1/52
f 78/105/53 77/106/53 34/37/53 69/74/53
f 94/107/54 95/108/54 72/77/54 92/99/54
f 96/109/55 97/110/55 27/29/55 73/78/55
f 21/23/56 20/111/56 68/73/56 24/26/56
f 95/108/57 96/109/57 73/78/57 72/77/57
f 20/111/58 78/105/58 69/74/58 68/73/58
f 39/44/59 38/43/59 53/58/59 52/57/59
f 47/52/60 46/51/60 41/46/60 40/45/60
f 77/106/61 9/112/61 8/38/61 34/37/61
f 97/110/62 98/113/62 28/30/62 27/29/62
f 22/24/63 21/23/63 24/26/63 23/25/63
f 33/36/64 32/35/64 8/10/64 7/9/64
f 38/43/65 33/36/65 7/9/65 53/58/65
f 46/51/66 22/24/66 23/25/66 41/46/66
f 42/47/67 26/28/67 15/17/67 49/54/67
f 58/102/68 6/103/68 31/33/68 37/42/68
f 62/67/69 87/92/69 5/5/69 57/62/69
f 54/59/70 10/12/70 76/81/70 65/70/70
f 66/71/71 79/84/71 19/21/71 45/50/71
f 50/55/72 18/20/72 84/89/72 61/66/72
f 61/66/73 84/89/73 87/92/73 62/67/73
f 65/70/74 76/81/74 79/84/74 66/71/74
f 37/42/75 31/33/75 33/36/75 38/43/75
f 41/46/76 23/25/76 26/28/76 42/47/76
f 45/50/77 19/21/77 22/24/77 46/51/77
f 49/54/78 15/17/78 18/20/78 50/55/78
f 53/58/79 7/9/79 10/12/79 54/59/79
f 57/62/80 5/5/80 6/8/80 58/63/80
f 98/113/81 47/52/81 40/45/81 28/30/81
f 93/114/82 39/44/82 52/57/82 92/115/82
f 91/116/83 59/101/83 36/41/83 90/117/83
f 29/31/84 43/48/84 48/53/84 12/14/84
f 82/118/85 63/68/85 56/61/85 83/119/85
f 94/120/86 55/60/86 64/69/86 95/121/86
f 96/122/87 67/72/87 44/49/87 97/123/87
f 13/15/88 51/56/88 60/65/88 14/124/88
f 95/121/89 64/69/89 67/72/89 96/122/89
f 14/124/90 60/65/90 63/68/90 82/118/90
f 83/119/91 56/61/91 59/64/91 91/125/91
f 92/115/92 52/57/92 55/60/92 94/120/92
f 12/14/93 48/53/93 51/56/93 13/15/93
f 97/123/94 44/49/94 47/52/94 98/113/94
f 28/30/95 40/45/95 43/48/95 29/31/95
f 90/117/96 36/41/96 39/44/96 93/114/96
